<svg xmlns="http://www.w3.org/2000/svg" viewBox="0 0 64 64">
  <rect width="64" height="64" rx="13" fill="#1c1c2e"/>
  <!-- Text/document block (input) -->
  <rect x="5" y="18" width="19" height="28" rx="3" fill="#89b4fa" opacity="0.92"/>
  <line x1="9" y1="25" x2="20" y2="25" stroke="rgba(28,28,46,0.6)" stroke-width="2" stroke-linecap="round"/>
  <line x1="9" y1="30" x2="20" y2="30" stroke="rgba(28,28,46,0.6)" stroke-width="2" stroke-linecap="round"/>
  <line x1="9" y1="35" x2="17" y2="35" stroke="rgba(28,28,46,0.6)" stroke-width="2" stroke-linecap="round"/>
  <!-- Arrow -->
  <path d="M25 32 L36 32" stroke="#89b4fa" stroke-width="2.5" stroke-linecap="round"/>
  <path d="M33 28 L38 32 L33 36" stroke="#89b4fa" stroke-width="2.5" stroke-linecap="round" stroke-linejoin="round" fill="none"/>
  <!-- Figure/diagram output block -->
  <rect x="39" y="14" width="20" height="36" rx="3" fill="#cba6f7" opacity="0.92"/>
  <!-- Diagram content lines (suggesting boxes/arrows inside) -->
  <rect x="42" y="19" width="7" height="5" rx="1" fill="rgba(28,28,46,0.5)"/>
  <rect x="49" y="19" width="7" height="5" rx="1" fill="rgba(28,28,46,0.5)"/>
  <line x1="45" y1="24" x2="45" y2="29" stroke="rgba(28,28,46,0.45)" stroke-width="1.2"/>
  <rect x="43" y="29" width="11" height="5" rx="1" fill="rgba(28,28,46,0.5)"/>
  <line x1="49" y1="24" x2="49" y2="29" stroke="rgba(28,28,46,0.45)" stroke-width="1.2"/>
  <line x1="45" y1="34" x2="45" y2="40" stroke="rgba(28,28,46,0.35)" stroke-width="1"/>
  <rect x="42" y="40" width="14" height="4" rx="1" fill="rgba(28,28,46,0.4)"/>
</svg>
